<?xml version="1.0" encoding="UTF-8" standalone="no"?>
<!DOCTYPE svg PUBLIC "-//W3C//DTD SVG 1.1//EN"
 "http://www.w3.org/Graphics/SVG/1.1/DTD/svg11.dtd">
<!-- Generated by graphviz version 2.48.0 (20210717.1556)
 -->
<!-- Title: dependency&#45;cruiser output Pages: 1 -->
<svg width="544pt" height="256pt"
 viewBox="0.00 0.00 544.00 256.00" xmlns="http://www.w3.org/2000/svg" xmlns:xlink="http://www.w3.org/1999/xlink">
<g id="graph0" class="graph" transform="scale(1 1) rotate(0) translate(4 252)">
<title>dependency&#45;cruiser output</title>
<polygon fill="white" stroke="transparent" points="-4,4 -4,-252 540,-252 540,4 -4,4"/>
<g id="clust1" class="cluster">
<title>cluster_@applications</title>
<path fill="#ffffff" stroke="black" stroke-width="2" d="M20,-8C20,-8 318,-8 318,-8 324,-8 330,-14 330,-20 330,-20 330,-228 330,-228 330,-234 324,-240 318,-240 318,-240 20,-240 20,-240 14,-240 8,-234 8,-228 8,-228 8,-20 8,-20 8,-14 14,-8 20,-8"/>
<text text-anchor="middle" x="169" y="-228.8" font-family="Helvetica,sans-Serif" font-weight="bold" font-size="9.00">@applications</text>
</g>
<g id="clust2" class="cluster">
<title>cluster_@applications/app</title>
<path fill="#ffffff" stroke="black" stroke-width="2" d="M28,-16C28,-16 310,-16 310,-16 316,-16 322,-22 322,-28 322,-28 322,-202 322,-202 322,-208 316,-214 310,-214 310,-214 28,-214 28,-214 22,-214 16,-208 16,-202 16,-202 16,-28 16,-28 16,-22 22,-16 28,-16"/>
<text text-anchor="middle" x="169" y="-202.8" font-family="Helvetica,sans-Serif" font-weight="bold" font-size="9.00">app</text>
</g>
<g id="clust3" class="cluster">
<title>cluster_@applications/app/pages</title>
<path fill="#ffffff" stroke="black" stroke-width="2" d="M114,-136C114,-136 226,-136 226,-136 232,-136 238,-142 238,-148 238,-148 238,-176 238,-176 238,-182 232,-188 226,-188 226,-188 114,-188 114,-188 108,-188 102,-182 102,-176 102,-176 102,-148 102,-148 102,-142 108,-136 114,-136"/>
<text text-anchor="middle" x="170" y="-176.8" font-family="Helvetica,sans-Serif" font-weight="bold" font-size="9.00">pages</text>
</g>
<g id="clust4" class="cluster">
<title>cluster_@applications/app/styles</title>
<path fill="#ffffff" stroke="black" stroke-width="2" d="M99,-24C99,-24 254,-24 254,-24 260,-24 266,-30 266,-36 266,-36 266,-64 266,-64 266,-70 260,-76 254,-76 254,-76 99,-76 99,-76 93,-76 87,-70 87,-64 87,-64 87,-36 87,-36 87,-30 93,-24 99,-24"/>
<text text-anchor="middle" x="176.5" y="-64.8" font-family="Helvetica,sans-Serif" font-weight="bold" font-size="9.00">styles</text>
</g>
<g id="clust5" class="cluster">
<title>cluster_@packages</title>
<path fill="#ffffff" stroke="black" stroke-width="2" d="M438,-8C438,-8 516,-8 516,-8 522,-8 528,-14 528,-20 528,-20 528,-116 528,-116 528,-122 522,-128 516,-128 516,-128 438,-128 438,-128 432,-128 426,-122 426,-116 426,-116 426,-20 426,-20 426,-14 432,-8 438,-8"/>
<text text-anchor="middle" x="477" y="-116.8" font-family="Helvetica,sans-Serif" font-weight="bold" font-size="9.00">@packages</text>
</g>
<g id="clust6" class="cluster">
<title>cluster_@packages/shared</title>
<path fill="#ffffff" stroke="black" stroke-width="2" d="M446,-16C446,-16 508,-16 508,-16 514,-16 520,-22 520,-28 520,-28 520,-90 520,-90 520,-96 514,-102 508,-102 508,-102 446,-102 446,-102 440,-102 434,-96 434,-90 434,-90 434,-28 434,-28 434,-22 440,-16 446,-16"/>
<text text-anchor="middle" x="477" y="-90.8" font-family="Helvetica,sans-Serif" font-weight="bold" font-size="9.00">shared</text>
</g>
<g id="clust7" class="cluster">
<title>cluster_@packages/shared/src</title>
<path fill="#ffffff" stroke="black" stroke-width="2" d="M454,-24C454,-24 500,-24 500,-24 506,-24 512,-30 512,-36 512,-36 512,-64 512,-64 512,-70 506,-76 500,-76 500,-76 454,-76 454,-76 448,-76 442,-70 442,-64 442,-64 442,-36 442,-36 442,-30 448,-24 454,-24"/>
<text text-anchor="middle" x="477" y="-64.8" font-family="Helvetica,sans-Serif" font-weight="bold" font-size="9.00">src</text>
</g>
<g id="clust8" class="cluster">
<title>cluster_node_modules</title>
<path fill="#ffffff" stroke="black" stroke-width="2" d="M350,-24C350,-24 406,-24 406,-24 412,-24 418,-30 418,-36 418,-36 418,-64 418,-64 418,-70 412,-76 406,-76 406,-76 350,-76 350,-76 344,-76 338,-70 338,-64 338,-64 338,-36 338,-36 338,-30 344,-24 350,-24"/>
<text text-anchor="middle" x="378" y="-64.8" font-family="Helvetica,sans-Serif" font-weight="bold" font-size="9.00">node_modules</text>
</g>
<!-- @applications/app/next&#45;env.d.ts -->
<g id="node1" class="node">
<title>@applications/app/next&#45;env.d.ts</title>
<g id="a_node1"><a xlink:href="@applications/app/next-env.d.ts" xlink:title="next&#45;env.d.ts">
<path fill="#ddfeff" stroke="black" d="M307.5,-162C307.5,-162 252.5,-162 252.5,-162 249.5,-162 246.5,-159 246.5,-156 246.5,-156 246.5,-150 246.5,-150 246.5,-147 249.5,-144 252.5,-144 252.5,-144 307.5,-144 307.5,-144 310.5,-144 313.5,-147 313.5,-150 313.5,-150 313.5,-156 313.5,-156 313.5,-159 310.5,-162 307.5,-162"/>
<text text-anchor="middle" x="280" y="-150.8" font-family="Helvetica,sans-Serif" font-size="9.00">next&#45;env.d.ts</text>
</a>
</g>
</g>
<!-- node_modules/next -->
<g id="node2" class="node">
<title>node_modules/next</title>
<g id="a_node2"><a xlink:href="node_modules/next" xlink:title="next">
<polygon fill="#c40b0a" fill-opacity="0.101961" stroke="black" points="400,-50 348,-50 346,-48 346,-32 398,-32 400,-34 400,-50"/>
<polyline fill="none" stroke="black" points="398,-48 346,-48 "/>
<polyline fill="none" stroke="black" points="398,-48 398,-32 "/>
<polyline fill="none" stroke="black" points="398,-48 400,-50 "/>
<text text-anchor="middle" x="373" y="-38.8" font-family="Helvetica,sans-Serif" font-size="9.00" fill="#c40b0a">next</text>
</a>
</g>
</g>
<!-- @applications/app/next&#45;env.d.ts&#45;&gt;node_modules/next -->
<g id="edge1" class="edge">
<title>@applications/app/next&#45;env.d.ts&#45;&gt;node_modules/next</title>
<path fill="none" stroke="#000000" stroke-opacity="0.200000" d="M313.7,-153C344.9,-153 386.5,-153 386.5,-153 386.5,-153 386.5,-56.17 386.5,-56.17"/>
<polygon fill="#000000" fill-opacity="0.200000" stroke="#000000" stroke-opacity="0.200000" points="388.6,-56.17 386.5,-50.17 384.4,-56.17 388.6,-56.17"/>
</g>
<!-- @applications/app/next.config.js -->
<g id="node3" class="node">
<title>@applications/app/next.config.js</title>
<g id="a_node3"><a xlink:href="@applications/app/next.config.js" xlink:title="no&#45;orphans">
<path fill="#ccffcc" stroke="orange" d="M87.5,-162C87.5,-162 30.5,-162 30.5,-162 27.5,-162 24.5,-159 24.5,-156 24.5,-156 24.5,-150 24.5,-150 24.5,-147 27.5,-144 30.5,-144 30.5,-144 87.5,-144 87.5,-144 90.5,-144 93.5,-147 93.5,-150 93.5,-150 93.5,-156 93.5,-156 93.5,-159 90.5,-162 87.5,-162"/>
<text text-anchor="middle" x="59" y="-150.8" font-family="Helvetica,sans-Serif" font-size="9.00" fill="orange">next.config.js</text>
</a>
</g>
</g>
<!-- @applications/app/pages/_app.tsx -->
<g id="node4" class="node">
<title>@applications/app/pages/_app.tsx</title>
<g id="a_node4"><a xlink:href="@applications/app/pages/_app.tsx" xlink:title="_app.tsx">
<path fill="#bbfeff" stroke="black" d="M158,-162C158,-162 116,-162 116,-162 113,-162 110,-159 110,-156 110,-156 110,-150 110,-150 110,-147 113,-144 116,-144 116,-144 158,-144 158,-144 161,-144 164,-147 164,-150 164,-150 164,-156 164,-156 164,-159 161,-162 158,-162"/>
<text text-anchor="middle" x="137" y="-150.8" font-family="Helvetica,sans-Serif" font-size="9.00">_app.tsx</text>
</a>
</g>
</g>
<!-- @applications/app/pages/_app.tsx&#45;&gt;node_modules/next -->
<g id="edge3" class="edge">
<title>@applications/app/pages/_app.tsx&#45;&gt;node_modules/next</title>
<path fill="none" stroke="#000000" stroke-opacity="0.200000" d="M160.25,-143.82C160.25,-122.81 160.25,-73 160.25,-73 160.25,-73 359.5,-73 359.5,-73 359.5,-73 359.5,-56.08 359.5,-56.08"/>
<polygon fill="#000000" fill-opacity="0.200000" stroke="#000000" stroke-opacity="0.200000" points="361.6,-56.08 359.5,-50.08 357.4,-56.08 361.6,-56.08"/>
</g>
<!-- @applications/app/styles/globals.css -->
<g id="node5" class="node">
<title>@applications/app/styles/globals.css</title>
<g id="a_node5"><a xlink:href="@applications/app/styles/globals.css" xlink:title="globals.css">
<path fill="#ffffcc" stroke="black" d="M150.5,-50C150.5,-50 101.5,-50 101.5,-50 98.5,-50 95.5,-47 95.5,-44 95.5,-44 95.5,-38 95.5,-38 95.5,-35 98.5,-32 101.5,-32 101.5,-32 150.5,-32 150.5,-32 153.5,-32 156.5,-35 156.5,-38 156.5,-38 156.5,-44 156.5,-44 156.5,-47 153.5,-50 150.5,-50"/>
<text text-anchor="middle" x="126" y="-38.8" font-family="Helvetica,sans-Serif" font-size="9.00">globals.css</text>
</a>
</g>
</g>
<!-- @applications/app/pages/_app.tsx&#45;&gt;@applications/app/styles/globals.css -->
<g id="edge2" class="edge">
<title>@applications/app/pages/_app.tsx&#45;&gt;@applications/app/styles/globals.css</title>
<path fill="none" stroke="#000000" stroke-width="2" stroke-opacity="0.200000" d="M133.25,-143.83C133.25,-143.83 133.25,-56.29 133.25,-56.29"/>
<polygon fill="#000000" fill-opacity="0.200000" stroke="#000000" stroke-width="2" stroke-opacity="0.200000" points="135.35,-56.29 133.25,-50.29 131.15,-56.29 135.35,-56.29"/>
</g>
<!-- @applications/app/pages/index.tsx -->
<g id="node6" class="node">
<title>@applications/app/pages/index.tsx</title>
<g id="a_node6"><a xlink:href="@applications/app/pages/index.tsx" xlink:title="index.tsx">
<path fill="#bbfeff" stroke="black" d="M224,-162C224,-162 182,-162 182,-162 179,-162 176,-159 176,-156 176,-156 176,-150 176,-150 176,-147 179,-144 182,-144 182,-144 224,-144 224,-144 227,-144 230,-147 230,-150 230,-150 230,-156 230,-156 230,-159 227,-162 224,-162"/>
<text text-anchor="middle" x="203" y="-150.8" font-family="Helvetica,sans-Serif" font-size="9.00">index.tsx</text>
</a>
</g>
</g>
<!-- @applications/app/pages/index.tsx&#45;&gt;node_modules/next -->
<g id="edge6" class="edge">
<title>@applications/app/pages/index.tsx&#45;&gt;node_modules/next</title>
<path fill="none" stroke="#000000" stroke-opacity="0.200000" d="M203,-143.75C203,-127.85 203,-97 203,-97 203,-97 373,-97 373,-97 373,-97 373,-56.25 373,-56.25"/>
<polygon fill="#000000" fill-opacity="0.200000" stroke="#000000" stroke-opacity="0.200000" points="375.1,-56.25 373,-50.25 370.9,-56.25 375.1,-56.25"/>
</g>
<!-- @applications/app/styles/Home.module.css -->
<g id="node7" class="node">
<title>@applications/app/styles/Home.module.css</title>
<g id="a_node7"><a xlink:href="@applications/app/styles/Home.module.css" xlink:title="Home.module.css">
<path fill="#ffffcc" stroke="black" d="M251.5,-50C251.5,-50 174.5,-50 174.5,-50 171.5,-50 168.5,-47 168.5,-44 168.5,-44 168.5,-38 168.5,-38 168.5,-35 171.5,-32 174.5,-32 174.5,-32 251.5,-32 251.5,-32 254.5,-32 257.5,-35 257.5,-38 257.5,-38 257.5,-44 257.5,-44 257.5,-47 254.5,-50 251.5,-50"/>
<text text-anchor="middle" x="213" y="-38.8" font-family="Helvetica,sans-Serif" font-size="9.00">Home.module.css</text>
</a>
</g>
</g>
<!-- @applications/app/pages/index.tsx&#45;&gt;@applications/app/styles/Home.module.css -->
<g id="edge4" class="edge">
<title>@applications/app/pages/index.tsx&#45;&gt;@applications/app/styles/Home.module.css</title>
<path fill="none" stroke="#000000" stroke-width="2" stroke-opacity="0.200000" d="M189.5,-143.83C189.5,-143.83 189.5,-56.29 189.5,-56.29"/>
<polygon fill="#000000" fill-opacity="0.200000" stroke="#000000" stroke-width="2" stroke-opacity="0.200000" points="191.6,-56.29 189.5,-50.29 187.4,-56.29 191.6,-56.29"/>
</g>
<!-- @packages/shared/src/index.tsx -->
<g id="node8" class="node">
<title>@packages/shared/src/index.tsx</title>
<g id="a_node8"><a xlink:href="@packages/shared/src/index.tsx" xlink:title="index.tsx">
<path fill="#bbfeff" stroke="black" d="M498,-50C498,-50 456,-50 456,-50 453,-50 450,-47 450,-44 450,-44 450,-38 450,-38 450,-35 453,-32 456,-32 456,-32 498,-32 498,-32 501,-32 504,-35 504,-38 504,-38 504,-44 504,-44 504,-47 501,-50 498,-50"/>
<text text-anchor="middle" x="477" y="-38.8" font-family="Helvetica,sans-Serif" font-size="9.00">index.tsx</text>
</a>
</g>
</g>
<!-- @applications/app/pages/index.tsx&#45;&gt;@packages/shared/src/index.tsx -->
<g id="edge5" class="edge">
<title>@applications/app/pages/index.tsx&#45;&gt;@packages/shared/src/index.tsx</title>
<path fill="none" stroke="#000000" stroke-width="2" stroke-opacity="0.200000" d="M216.5,-143.98C216.5,-134.21 216.5,-120 216.5,-120 216.5,-120 477,-120 477,-120 477,-120 477,-56.06 477,-56.06"/>
<polygon fill="#000000" fill-opacity="0.200000" stroke="#000000" stroke-width="2" stroke-opacity="0.200000" points="479.1,-56.06 477,-50.06 474.9,-56.06 479.1,-56.06"/>
</g>
</g>
</svg>
